<svg width="23" height="23" viewBox="0 0 23 23" fill="none" xmlns="http://www.w3.org/2000/svg">
<g clip-path="url(#clip0_111_54516)">
<path d="M21.6691 9.58742L12.6955 9.58699C12.2992 9.58699 11.978 9.90814 11.978 10.3044V13.1711C11.978 13.5672 12.2992 13.8885 12.6954 13.8885H17.7488C17.1955 15.3245 16.1627 16.5272 14.845 17.2913L16.9997 21.0214C20.4562 19.0224 22.4997 15.5149 22.4997 11.5885C22.4997 11.0294 22.4585 10.6298 22.3761 10.1797C22.3135 9.83784 22.0166 9.58742 21.6691 9.58742Z" fill="#167EE6"/>
<path d="M11.4999 18.1956C9.02689 18.1956 6.86797 16.8445 5.70846 14.845L1.97852 16.9949C3.87666 20.2847 7.4325 22.5 11.4999 22.5C13.4953 22.5 15.378 21.9628 16.9999 21.0265V21.0214L14.8452 17.2913C13.8595 17.8629 12.719 18.1956 11.4999 18.1956Z" fill="#12B347"/>
<path d="M17 21.0265V21.0214L14.8452 17.2913C13.8596 17.8629 12.7192 18.1957 11.5 18.1957V22.5C13.4953 22.5 15.3782 21.9628 17 21.0265Z" fill="#0F993E"/>
<path d="M4.80435 11.5C4.80435 10.281 5.13702 9.14058 5.70854 8.15501L1.9786 6.00511C1.0372 7.6219 0.5 9.49955 0.5 11.5C0.5 13.5005 1.0372 15.3781 1.9786 16.9949L5.70854 14.845C5.13702 13.8594 4.80435 12.719 4.80435 11.5Z" fill="#FFD500"/>
<path d="M11.4999 4.80435C13.1126 4.80435 14.5939 5.37738 15.7509 6.33056C16.0363 6.56568 16.4512 6.54871 16.7127 6.28725L18.7438 4.25611C19.0405 3.95946 19.0193 3.47387 18.7024 3.19895C16.7639 1.5172 14.2416 0.5 11.4999 0.5C7.4325 0.5 3.87666 2.71534 1.97852 6.00511L5.70846 8.15501C6.86797 6.15555 9.0269 4.80435 11.4999 4.80435Z" fill="#FF4B26"/>
<path d="M15.751 6.33056C16.0364 6.56568 16.4513 6.54871 16.7128 6.28725L18.7439 4.25611C19.0405 3.95946 19.0194 3.47387 18.7025 3.19895C16.764 1.51716 14.2417 0.5 11.5 0.5V4.80435C13.1126 4.80435 14.594 5.37738 15.751 6.33056Z" fill="#D93F21"/>
</g>
<defs>
<clipPath id="clip0_111_54516">
<rect width="22" height="22" fill="white" transform="translate(0.5 0.5)"/>
</clipPath>
</defs>
</svg>
