<svg width="122" height="29" viewBox="0 0 122 29" fill="none" xmlns="http://www.w3.org/2000/svg">
<path d="M7.63426 2V4.81713M21.7199 2V4.81713M6.50741 27.3542H22.8468C24.4245 27.3542 25.2134 27.3542 25.816 27.0471C26.3461 26.7771 26.7771 26.3461 27.0471 25.816C27.3542 25.2134 27.3542 24.4245 27.3542 22.8468V9.32454C27.3542 7.74679 27.3542 6.95792 27.0471 6.35531C26.7771 5.82523 26.3461 5.39426 25.816 5.12418C25.2134 4.81713 24.4245 4.81713 22.8468 4.81713H6.50741C4.92967 4.81713 4.14079 4.81713 3.53818 5.12418C3.0081 5.39426 2.57713 5.82523 2.30705 6.35531C2 6.95792 2 7.74679 2 9.32454V22.8468C2 24.4245 2 25.2134 2.30705 25.816C2.57713 26.3461 3.0081 26.7771 3.53818 27.0471C4.14079 27.3542 4.92966 27.3542 6.50741 27.3542Z" stroke="black" stroke-width="2.81713" stroke-linecap="round" stroke-linejoin="round"/>
<path d="M22.3023 15.7874C22.3023 16.6926 22.124 17.5891 21.7776 18.4255C21.4311 19.2618 20.9233 20.0218 20.2832 20.6619C19.6431 21.3021 18.8831 21.8098 18.0467 22.1563C17.2104 22.5027 16.3139 22.681 15.4086 22.681C14.5033 22.681 13.6069 22.5027 12.7705 22.1563C11.9342 21.8098 11.1742 21.3021 10.5341 20.6619C9.89393 20.0218 9.38614 19.2618 9.0397 18.4255C8.69326 17.5891 8.51495 16.6926 8.51495 15.7874C12.6465 18.7088 18.1708 18.7088 22.3023 15.7874Z" fill="black"/>
<path d="M51.7435 9.54686L46.0465 19.4645V25H42.9329V19.4645L37.0053 9.54686H40.5572L44.4782 16.2355L48.1915 9.54686H51.7435ZM60.0499 19.2339C60.0499 19.626 60.0037 20.0181 59.9346 20.3871H51.1932C51.5622 21.7479 52.6001 22.5782 54.0531 22.5782C54.9988 22.5782 55.8291 22.3476 56.3365 21.5403H59.6578C59.0812 23.8698 56.7286 25.2306 54.0531 25.2306C50.5473 25.2306 48.0564 22.7628 48.0564 19.2339C48.0564 15.7281 50.5473 13.2372 54.0531 13.2372C57.5589 13.2372 60.0499 15.7281 60.0499 19.2339ZM54.0531 15.8896C52.6923 15.8896 51.6775 16.6276 51.2623 17.85H56.8439C56.4288 16.6276 55.4139 15.8896 54.0531 15.8896ZM66.0421 25.2306C62.5363 25.2306 60.0454 22.7628 60.0454 19.2339C60.0454 15.7281 62.5363 13.2372 66.0421 13.2372C67.1953 13.2372 68.2102 13.5831 69.0405 14.2059V13.4678H72.0389V25H69.0405V24.2619C68.2102 24.8847 67.1953 25.2306 66.0421 25.2306ZM66.0421 22.4629C67.8642 22.4629 69.0405 21.1944 69.0405 19.2339C69.0405 17.2734 67.8642 16.0049 66.0421 16.0049C64.22 16.0049 63.0437 17.2734 63.0437 19.2339C63.0437 21.1944 64.22 22.4629 66.0421 22.4629ZM72.4902 25V13.4678H75.4886V14.967L78.9483 13.4678V16.5815L75.4886 17.9654V25H72.4902ZM79.4113 25V9.54686H85.0391C88.3373 9.54686 90.7129 11.6688 90.7129 14.8286C90.7129 17.9884 88.3373 20.1103 85.0391 20.1103H82.525V25H79.4113ZM85.0391 12.4299H82.525V17.2273H85.0391C86.6305 17.2273 87.5992 16.2817 87.5992 14.8286C87.5992 13.3755 86.6074 12.4299 85.0391 12.4299ZM102.262 19.2339C102.262 19.626 102.216 20.0181 102.147 20.3871H93.4055C93.7745 21.7479 94.8124 22.5782 96.2655 22.5782C97.2111 22.5782 98.0414 22.3476 98.5488 21.5403H101.87C101.294 23.8698 98.9409 25.2306 96.2655 25.2306C92.7597 25.2306 90.2687 22.7628 90.2687 19.2339C90.2687 15.7281 92.7597 13.2372 96.2655 13.2372C99.7713 13.2372 102.262 15.7281 102.262 19.2339ZM96.2655 15.8896C94.9047 15.8896 93.8898 16.6276 93.4747 17.85H99.0563C98.6411 16.6276 97.6263 15.8896 96.2655 15.8896ZM114.251 19.2339C114.251 19.626 114.205 20.0181 114.136 20.3871H105.394C105.763 21.7479 106.801 22.5782 108.254 22.5782C109.2 22.5782 110.03 22.3476 110.538 21.5403H113.859C113.282 23.8698 110.93 25.2306 108.254 25.2306C104.749 25.2306 102.258 22.7628 102.258 19.2339C102.258 15.7281 104.749 13.2372 108.254 13.2372C111.76 13.2372 114.251 15.7281 114.251 19.2339ZM108.254 15.8896C106.894 15.8896 105.879 16.6276 105.464 17.85H111.045C110.63 16.6276 109.615 15.8896 108.254 15.8896ZM114.477 25V13.4678H117.476V14.967L120.935 13.4678V16.5815L117.476 17.9654V25H114.477Z" fill="black"/>
</svg>
