<svg width="21" height="22" viewBox="0 0 21 22" fill="none" xmlns="http://www.w3.org/2000/svg">
<path d="M5.19559 2V4.07176M15.5544 2V4.07176M4.36688 20.6459H16.3831C17.5434 20.6459 18.1236 20.6459 18.5667 20.42C18.9565 20.2215 19.2735 19.9045 19.4721 19.5147C19.6979 19.0715 19.6979 18.4913 19.6979 17.331V7.38658C19.6979 6.22628 19.6979 5.64613 19.4721 5.20296C19.2735 4.81313 18.9565 4.49619 18.5667 4.29757C18.1236 4.07176 17.5434 4.07176 16.3831 4.07176H4.36688C3.20659 4.07176 2.62644 4.07176 2.18327 4.29757C1.79343 4.49619 1.47649 4.81313 1.27787 5.20296C1.05206 5.64613 1.05206 6.22628 1.05206 7.38658V17.331C1.05206 18.4913 1.05206 19.0715 1.27787 19.5147C1.47649 19.9045 1.79343 20.2215 2.18327 20.42C2.62644 20.6459 3.20658 20.6459 4.36688 20.6459Z" stroke="black" stroke-width="2.07176" stroke-linecap="round" stroke-linejoin="round"/>
<path d="M15.9827 12.1394C15.9827 12.8051 15.8516 13.4644 15.5968 14.0795C15.342 14.6945 14.9686 15.2534 14.4978 15.7242C14.0271 16.195 13.4682 16.5684 12.8531 16.8232C12.238 17.0779 11.5787 17.2091 10.913 17.2091C10.2472 17.2091 9.58797 17.0779 8.97289 16.8232C8.3578 16.5684 7.79892 16.195 7.32815 15.7242C6.85738 15.2534 6.48395 14.6945 6.22917 14.0795C5.97439 13.4644 5.84326 12.8051 5.84326 12.1394C8.88165 14.2878 12.9443 14.2878 15.9827 12.1394Z" fill="black"/>
</svg>
